<svg xmlns="http://www.w3.org/2000/svg" xmlns:xlink="http://www.w3.org/1999/xlink" width="1080" zoomAndPan="magnify" viewBox="0 0 810 809.999993" height="1080" preserveAspectRatio="xMidYMid meet" version="1.0"><defs><clipPath id="900318074d"><path d="M 180.023438 180.023438 L 630.023438 180.023438 L 630.023438 630.023438 L 180.023438 630.023438 Z M 180.023438 180.023438 " clip-rule="nonzero"/></clipPath><clipPath id="bed7f43a98"><path d="M 405.023438 180.023438 C 280.757812 180.023438 180.023438 280.757812 180.023438 405.023438 C 180.023438 529.285156 280.757812 630.023438 405.023438 630.023438 C 529.285156 630.023438 630.023438 529.285156 630.023438 405.023438 C 630.023438 280.757812 529.285156 180.023438 405.023438 180.023438 Z M 405.023438 180.023438 " clip-rule="nonzero"/></clipPath><clipPath id="f89aa031e3"><path d="M 315 315 L 592.5 315 L 592.5 592.5 L 315 592.5 Z M 315 315 " clip-rule="nonzero"/></clipPath><clipPath id="902f7c36ab"><path d="M 453.75 315 C 377.121094 315 315 377.121094 315 453.75 C 315 530.378906 377.121094 592.5 453.75 592.5 C 530.378906 592.5 592.5 530.378906 592.5 453.75 C 592.5 377.121094 530.378906 315 453.75 315 Z M 453.75 315 " clip-rule="nonzero"/></clipPath></defs><rect x="-81" width="972" fill="#ffffff" y="-80.999999" height="971.999992" fill-opacity="1"/><rect x="-81" width="972" fill="#7baaa1" y="-80.999999" height="971.999992" fill-opacity="1"/><g clip-path="url(#900318074d)"><g clip-path="url(#bed7f43a98)"><path fill="#1c2e5c" d="M 180.023438 180.023438 L 630.023438 180.023438 L 630.023438 630.023438 L 180.023438 630.023438 Z M 180.023438 180.023438 " fill-opacity="1" fill-rule="nonzero"/></g></g><g clip-path="url(#f89aa031e3)"><g clip-path="url(#902f7c36ab)"><path fill="#fbffde" d="M 315 315 L 592.5 315 L 592.5 592.5 L 315 592.5 Z M 315 315 " fill-opacity="1" fill-rule="nonzero"/></g></g></svg>